<mxfile host="drawio-plugin" modified="2022-09-03T15:05:42.800Z" agent="5.0 (Windows NT 6.2; Win64; x64) AppleWebKit/537.36 (KHTML, like Gecko) Chrome/87.0.4280.141 Safari/537.36" etag="7tMFUD5uxXEvyOCsxoYN" version="15.5.4" type="embed"><diagram id="kgpKYQtTHZ0yAKxKKP6v" name="Page-1"><mxGraphModel dx="1423" dy="721" grid="1" gridSize="10" guides="1" tooltips="1" connect="1" arrows="1" fold="1" page="1" pageScale="1" pageWidth="850" pageHeight="1100" math="0" shadow="0"><root><mxCell id="0"/><mxCell id="1" parent="0"/><mxCell id="RIxhRskH3-DO_gDLUjoZ-39" value="CliFrontend" style="shape=umlLifeline;perimeter=lifelinePerimeter;whiteSpace=wrap;html=1;container=1;collapsible=0;recursiveResize=0;outlineConnect=0;" parent="1" vertex="1"><mxGeometry x="350" y="90" width="110" height="480" as="geometry"/></mxCell><mxCell id="RIxhRskH3-DO_gDLUjoZ-64" style="edgeStyle=none;rounded=0;orthogonalLoop=1;jettySize=auto;html=1;dashed=1;" parent="RIxhRskH3-DO_gDLUjoZ-39" source="RIxhRskH3-DO_gDLUjoZ-46" target="RIxhRskH3-DO_gDLUjoZ-39" edge="1"><mxGeometry relative="1" as="geometry"/></mxCell><mxCell id="RIxhRskH3-DO_gDLUjoZ-65" style="edgeStyle=none;rounded=0;orthogonalLoop=1;jettySize=auto;html=1;dashed=1;" parent="RIxhRskH3-DO_gDLUjoZ-39" source="RIxhRskH3-DO_gDLUjoZ-46" target="RIxhRskH3-DO_gDLUjoZ-39" edge="1"><mxGeometry relative="1" as="geometry"/></mxCell><mxCell id="RIxhRskH3-DO_gDLUjoZ-46" value="" style="html=1;points=[];perimeter=orthogonalPerimeter;" parent="RIxhRskH3-DO_gDLUjoZ-39" vertex="1"><mxGeometry x="50" y="90" width="10" height="330" as="geometry"/></mxCell><mxCell id="RIxhRskH3-DO_gDLUjoZ-58" value="main" style="edgeStyle=none;rounded=0;orthogonalLoop=1;jettySize=auto;html=1;dashed=1;" parent="RIxhRskH3-DO_gDLUjoZ-39" source="RIxhRskH3-DO_gDLUjoZ-46" target="RIxhRskH3-DO_gDLUjoZ-46" edge="1"><mxGeometry relative="1" as="geometry"><Array as="points"><mxPoint x="90" y="160"/><mxPoint x="90" y="200"/><mxPoint x="80" y="200"/></Array></mxGeometry></mxCell><mxCell id="RIxhRskH3-DO_gDLUjoZ-74" value="run" style="edgeStyle=none;rounded=0;orthogonalLoop=1;jettySize=auto;html=1;dashed=1;" parent="RIxhRskH3-DO_gDLUjoZ-39" source="RIxhRskH3-DO_gDLUjoZ-46" target="RIxhRskH3-DO_gDLUjoZ-46" edge="1"><mxGeometry relative="1" as="geometry"><Array as="points"><mxPoint x="90" y="250"/></Array></mxGeometry></mxCell><mxCell id="RIxhRskH3-DO_gDLUjoZ-56" style="edgeStyle=none;rounded=0;orthogonalLoop=1;jettySize=auto;html=1;dashed=1;" parent="1" source="RIxhRskH3-DO_gDLUjoZ-47" target="RIxhRskH3-DO_gDLUjoZ-39" edge="1"><mxGeometry relative="1" as="geometry"><Array as="points"><mxPoint x="330" y="220"/></Array></mxGeometry></mxCell><mxCell id="RIxhRskH3-DO_gDLUjoZ-57" value="submit job" style="edgeLabel;html=1;align=center;verticalAlign=middle;resizable=0;points=[];" parent="RIxhRskH3-DO_gDLUjoZ-56" vertex="1" connectable="0"><mxGeometry x="-0.2036" y="2" relative="1" as="geometry"><mxPoint as="offset"/></mxGeometry></mxCell><mxCell id="RIxhRskH3-DO_gDLUjoZ-47" value="application.jar" style="shape=umlLifeline;perimeter=lifelinePerimeter;whiteSpace=wrap;html=1;container=1;collapsible=0;recursiveResize=0;outlineConnect=0;" parent="1" vertex="1"><mxGeometry x="190" y="90" width="100" height="300" as="geometry"/></mxCell><mxCell id="RIxhRskH3-DO_gDLUjoZ-52" style="edgeStyle=none;rounded=0;orthogonalLoop=1;jettySize=auto;html=1;dashed=1;" parent="1" source="RIxhRskH3-DO_gDLUjoZ-51" target="RIxhRskH3-DO_gDLUjoZ-47" edge="1"><mxGeometry relative="1" as="geometry"><mxPoint x="140" y="240" as="sourcePoint"/><Array as="points"><mxPoint x="230" y="160"/></Array></mxGeometry></mxCell><mxCell id="RIxhRskH3-DO_gDLUjoZ-54" style="edgeStyle=none;rounded=0;orthogonalLoop=1;jettySize=auto;html=1;dashed=1;" parent="1" source="RIxhRskH3-DO_gDLUjoZ-51" target="RIxhRskH3-DO_gDLUjoZ-39" edge="1"><mxGeometry relative="1" as="geometry"><mxPoint x="300" y="180" as="targetPoint"/><Array as="points"><mxPoint x="320" y="180"/></Array></mxGeometry></mxCell><mxCell id="RIxhRskH3-DO_gDLUjoZ-55" value="bin/flink run application.jar" style="edgeLabel;html=1;align=center;verticalAlign=middle;resizable=0;points=[];" parent="RIxhRskH3-DO_gDLUjoZ-54" vertex="1" connectable="0"><mxGeometry x="-0.5949" y="-3" relative="1" as="geometry"><mxPoint x="65" y="-3" as="offset"/></mxGeometry></mxCell><mxCell id="RIxhRskH3-DO_gDLUjoZ-51" value="" style="shape=umlLifeline;participant=umlActor;perimeter=lifelinePerimeter;whiteSpace=wrap;html=1;container=1;collapsible=0;recursiveResize=0;verticalAlign=top;spacingTop=36;outlineConnect=0;size=40;" parent="1" vertex="1"><mxGeometry x="120" y="90" width="20" height="300" as="geometry"/></mxCell><mxCell id="RIxhRskH3-DO_gDLUjoZ-59" value="CustomCommandLine" style="shape=umlLifeline;perimeter=lifelinePerimeter;whiteSpace=wrap;html=1;container=1;collapsible=0;recursiveResize=0;outlineConnect=0;" parent="1" vertex="1"><mxGeometry x="510" y="90" width="140" height="470" as="geometry"/></mxCell><mxCell id="RIxhRskH3-DO_gDLUjoZ-63" value="" style="html=1;points=[];perimeter=orthogonalPerimeter;labelBackgroundColor=none;" parent="RIxhRskH3-DO_gDLUjoZ-59" vertex="1"><mxGeometry x="65" y="220" width="10" height="200" as="geometry"/></mxCell><mxCell id="RIxhRskH3-DO_gDLUjoZ-62" value="loadCustomCommandLine" style="edgeStyle=none;rounded=0;orthogonalLoop=1;jettySize=auto;html=1;dashed=1;" parent="1" source="RIxhRskH3-DO_gDLUjoZ-46" target="RIxhRskH3-DO_gDLUjoZ-59" edge="1"><mxGeometry relative="1" as="geometry"><Array as="points"><mxPoint x="490" y="310"/></Array></mxGeometry></mxCell><mxCell id="RIxhRskH3-DO_gDLUjoZ-75" value="PackagedProgram" style="shape=umlLifeline;perimeter=lifelinePerimeter;whiteSpace=wrap;html=1;container=1;collapsible=0;recursiveResize=0;outlineConnect=0;labelBackgroundColor=none;" parent="1" vertex="1"><mxGeometry x="690" y="90" width="130" height="510" as="geometry"/></mxCell><mxCell id="RIxhRskH3-DO_gDLUjoZ-79" value="" style="html=1;points=[];perimeter=orthogonalPerimeter;labelBackgroundColor=none;" parent="RIxhRskH3-DO_gDLUjoZ-75" vertex="1"><mxGeometry x="60" y="290" width="10" height="80" as="geometry"/></mxCell><mxCell id="RIxhRskH3-DO_gDLUjoZ-80" value="" style="html=1;verticalAlign=bottom;startArrow=oval;endArrow=block;startSize=8;rounded=0;dashed=1;exitX=1.188;exitY=0.621;exitDx=0;exitDy=0;exitPerimeter=0;" parent="1" source="RIxhRskH3-DO_gDLUjoZ-46" target="RIxhRskH3-DO_gDLUjoZ-79" edge="1"><mxGeometry relative="1" as="geometry"><mxPoint x="420" y="380" as="sourcePoint"/></mxGeometry></mxCell><mxCell id="RIxhRskH3-DO_gDLUjoZ-81" value="buildProgram" style="edgeLabel;html=1;align=center;verticalAlign=middle;resizable=0;points=[];" parent="RIxhRskH3-DO_gDLUjoZ-80" vertex="1" connectable="0"><mxGeometry x="0.4062" y="2" relative="1" as="geometry"><mxPoint as="offset"/></mxGeometry></mxCell><mxCell id="RIxhRskH3-DO_gDLUjoZ-82" value="ClientUtils" style="shape=umlLifeline;perimeter=lifelinePerimeter;whiteSpace=wrap;html=1;container=1;collapsible=0;recursiveResize=0;outlineConnect=0;labelBackgroundColor=none;" parent="1" vertex="1"><mxGeometry x="1060" y="90" width="130" height="640" as="geometry"/></mxCell><mxCell id="RIxhRskH3-DO_gDLUjoZ-83" value="" style="html=1;points=[];perimeter=orthogonalPerimeter;labelBackgroundColor=none;" parent="RIxhRskH3-DO_gDLUjoZ-82" vertex="1"><mxGeometry x="60" y="360" width="10" height="320" as="geometry"/></mxCell><mxCell id="RIxhRskH3-DO_gDLUjoZ-84" value="" style="html=1;verticalAlign=bottom;startArrow=oval;endArrow=block;startSize=8;rounded=0;dashed=1;" parent="1" source="RIxhRskH3-DO_gDLUjoZ-46" target="RIxhRskH3-DO_gDLUjoZ-83" edge="1"><mxGeometry relative="1" as="geometry"><mxPoint x="870" y="410" as="sourcePoint"/></mxGeometry></mxCell><mxCell id="RIxhRskH3-DO_gDLUjoZ-85" value="ClientUtils.executeProgram" style="edgeLabel;html=1;align=center;verticalAlign=middle;resizable=0;points=[];" parent="RIxhRskH3-DO_gDLUjoZ-84" vertex="1" connectable="0"><mxGeometry x="-0.0435" y="-2" relative="1" as="geometry"><mxPoint as="offset"/></mxGeometry></mxCell><mxCell id="RIxhRskH3-DO_gDLUjoZ-86" value="ClassLoader" style="shape=umlLifeline;perimeter=lifelinePerimeter;whiteSpace=wrap;html=1;container=1;collapsible=0;recursiveResize=0;outlineConnect=0;labelBackgroundColor=none;" parent="1" vertex="1"><mxGeometry x="1360" y="90" width="80" height="650" as="geometry"/></mxCell><mxCell id="RIxhRskH3-DO_gDLUjoZ-87" value="" style="html=1;points=[];perimeter=orthogonalPerimeter;labelBackgroundColor=none;" parent="RIxhRskH3-DO_gDLUjoZ-86" vertex="1"><mxGeometry x="35" y="420" width="10" height="80" as="geometry"/></mxCell><mxCell id="RIxhRskH3-DO_gDLUjoZ-88" value="" style="html=1;verticalAlign=bottom;startArrow=oval;endArrow=block;startSize=8;rounded=0;dashed=1;" parent="1" target="RIxhRskH3-DO_gDLUjoZ-87" edge="1"><mxGeometry relative="1" as="geometry"><mxPoint x="1130" y="510" as="sourcePoint"/><Array as="points"><mxPoint x="1200" y="510"/></Array></mxGeometry></mxCell><mxCell id="RIxhRskH3-DO_gDLUjoZ-89" value="getUserCodeClassLoader" style="edgeLabel;html=1;align=center;verticalAlign=middle;resizable=0;points=[];" parent="RIxhRskH3-DO_gDLUjoZ-88" vertex="1" connectable="0"><mxGeometry x="-0.1999" relative="1" as="geometry"><mxPoint x="14" as="offset"/></mxGeometry></mxCell><mxCell id="RIxhRskH3-DO_gDLUjoZ-93" value="ContextEnvironment" style="shape=umlLifeline;perimeter=lifelinePerimeter;whiteSpace=wrap;html=1;container=1;collapsible=0;recursiveResize=0;outlineConnect=0;labelBackgroundColor=none;" parent="1" vertex="1"><mxGeometry x="1490" y="90" width="120" height="670" as="geometry"/></mxCell><mxCell id="RIxhRskH3-DO_gDLUjoZ-94" value="StreamContextEnvironment" style="shape=umlLifeline;perimeter=lifelinePerimeter;whiteSpace=wrap;html=1;container=1;collapsible=0;recursiveResize=0;outlineConnect=0;labelBackgroundColor=none;" parent="1" vertex="1"><mxGeometry x="1640" y="90" width="160" height="680" as="geometry"/></mxCell><mxCell id="RIxhRskH3-DO_gDLUjoZ-97" value="DefaultExecutorServerLoader" style="shape=umlLifeline;perimeter=lifelinePerimeter;whiteSpace=wrap;html=1;container=1;collapsible=0;recursiveResize=0;outlineConnect=0;labelBackgroundColor=none;" parent="1" vertex="1"><mxGeometry x="850" y="90" width="180" height="920" as="geometry"/></mxCell><mxCell id="RIxhRskH3-DO_gDLUjoZ-99" value="" style="html=1;points=[];perimeter=orthogonalPerimeter;labelBackgroundColor=none;" parent="RIxhRskH3-DO_gDLUjoZ-97" vertex="1"><mxGeometry x="80" y="320" width="10" height="310" as="geometry"/></mxCell><mxCell id="RIxhRskH3-DO_gDLUjoZ-100" value="" style="html=1;verticalAlign=bottom;startArrow=oval;endArrow=block;startSize=8;rounded=0;dashed=1;" parent="1" target="RIxhRskH3-DO_gDLUjoZ-99" edge="1"><mxGeometry relative="1" as="geometry"><mxPoint x="410" y="410" as="sourcePoint"/></mxGeometry></mxCell><mxCell id="RIxhRskH3-DO_gDLUjoZ-101" value="new DefaultExecutorServiceLoader" style="edgeLabel;html=1;align=center;verticalAlign=middle;resizable=0;points=[];" parent="RIxhRskH3-DO_gDLUjoZ-100" vertex="1" connectable="0"><mxGeometry x="-0.0922" y="1" relative="1" as="geometry"><mxPoint as="offset"/></mxGeometry></mxCell><mxCell id="RIxhRskH3-DO_gDLUjoZ-102" value="" style="html=1;verticalAlign=bottom;startArrow=oval;endArrow=block;startSize=8;rounded=0;dashed=1;" parent="1" edge="1"><mxGeometry relative="1" as="geometry"><mxPoint x="1130" y="540" as="sourcePoint"/><mxPoint x="1395" y="540" as="targetPoint"/><Array as="points"><mxPoint x="1200" y="540"/></Array></mxGeometry></mxCell><mxCell id="RIxhRskH3-DO_gDLUjoZ-103" value="currentThread.getContextClassLoader" style="edgeLabel;html=1;align=center;verticalAlign=middle;resizable=0;points=[];" parent="RIxhRskH3-DO_gDLUjoZ-102" vertex="1" connectable="0"><mxGeometry x="-0.1999" relative="1" as="geometry"><mxPoint x="14" as="offset"/></mxGeometry></mxCell><mxCell id="2" style="rounded=0;orthogonalLoop=1;jettySize=auto;html=1;" edge="1" parent="1" source="RIxhRskH3-DO_gDLUjoZ-99" target="RIxhRskH3-DO_gDLUjoZ-94"><mxGeometry relative="1" as="geometry"><Array as="points"><mxPoint x="1310" y="570"/><mxPoint x="1370" y="570"/></Array></mxGeometry></mxCell></root></mxGraphModel></diagram></mxfile>